<?xml version="1.0" ?><svg viewBox="0 0 512 512" xmlns="http://www.w3.org/2000/svg"><g id="clean_energy"><path d="M222.85,117.8247A10,10,0,0,0,230.4609,99.33a58.5242,58.5242,0,0,1-34.6455-40.0239q1.815-.1531,3.6407-.1534a43.39,43.39,0,0,1,43.3378,43.3531c0,.1762.0174.348.0264.522v34.24a10,10,0,1,0,20,0V103.0308c.01-.18.0274-.3587.0274-.5415a43.3858,43.3858,0,0,1,43.3369-43.337q1.8237,0,3.6406.1534A58.524,58.524,0,0,1,275.18,99.33a10,10,0,1,0,7.6113,18.4951,78.4586,78.4586,0,0,0,48.4512-65.58,9.9988,9.9988,0,0,0-7.1309-10.5024,63.2724,63.2724,0,0,0-71.2892,26.7,63.2776,63.2776,0,0,0-71.2928-26.6995,9.9988,9.9988,0,0,0-7.1309,10.5024A78.4588,78.4588,0,0,0,222.85,117.8247Z"/><path d="M203.4346,351.2324h26.5731l-.05,71.6289a10,10,0,0,0,17.9815,6.0313l61.6142-81.6358a10,10,0,0,0-7.9814-16.0244h-26.573l.05-71.6289a10,10,0,0,0-17.9814-6.0312L195.4531,335.208a10,10,0,0,0,7.9815,16.0244Zm51.5937-61.7588-.0361,51.752a10,10,0,0,0,9.9932,10.0068h16.5107l-31.5176,41.7593.0361-51.7524h0l0-.0069a10,10,0,0,0-10-10H223.5107Z"/><path d="M497.1416,460.7573,393.627,271.3032V188.2539a10,10,0,0,0-10-10H347.34a10,10,0,0,0,0,20H373.627v75.603a9.998,9.998,0,0,0,1.2246,4.795l96.6552,176.9H422.94L322.27,271.3032V168.5176a10,10,0,0,0-10-10H201.97a10,10,0,0,0-10,10V271.3032L91.2991,455.5522H40.4932l96.6552-176.9a9.998,9.998,0,0,0,1.2246-4.795v-75.603H164.66a10,10,0,0,0,0-20H128.373a10,10,0,0,0-10,10v83.0493L14.8584,460.7573a10,10,0,0,0,8.7754,14.7949H488.3662a10,10,0,0,0,8.7754-14.7949ZM210.7451,278.6519a9.998,9.998,0,0,0,1.2246-4.795V178.5176h90.3v95.3393a9.998,9.998,0,0,0,1.2246,4.795l96.6553,176.9H114.09Z"/></g></svg>